<svg width="35" height="35" viewBox="0 0 35 35" fill="none" xmlns="http://www.w3.org/2000/svg">
<path d="M29.9221 30L23.587 23.6138L29.9221 30ZM27.0977 15.0789C27.0977 18.2825 25.833 21.3548 23.5819 23.6201C21.3308 25.8853 18.2776 27.1579 15.094 27.1579C11.9104 27.1579 8.85726 25.8853 6.60613 23.6201C4.355 21.3548 3.09033 18.2825 3.09033 15.0789C3.09033 11.8754 4.355 8.80308 6.60613 6.53784C8.85726 4.2726 11.9104 3 15.094 3C18.2776 3 21.3308 4.2726 23.5819 6.53784C25.833 8.80308 27.0977 11.8754 27.0977 15.0789V15.0789Z" stroke="white" stroke-width="2" stroke-linecap="round"/>
<path d="M15.0156 11V15M15.0156 15V19M15.0156 15H18.9907M15.0156 15H11.0405" stroke="white" stroke-width="2" stroke-linecap="square"/>
</svg>
